<svg width="20" height="21" viewBox="0 0 20 21" fill="none" xmlns="http://www.w3.org/2000/svg">
<g clip-path="url(#clip0_701_24467)">
<path d="M16.5625 5.72498C17.1458 6.05665 17.5042 6.67748 17.5 7.34832V13.4183C17.5 14.0925 17.1308 14.7142 16.535 15.0417L10.91 18.6C10.6311 18.7531 10.3181 18.8334 10 18.8334C9.68186 18.8334 9.36887 18.7531 9.09 18.6L3.465 15.0417C3.17347 14.8823 2.9301 14.6476 2.76034 14.362C2.59058 14.0765 2.50067 13.7505 2.5 13.4183V7.34748C2.5 6.67332 2.86917 6.05248 3.465 5.72498L9.09 2.40832C9.37711 2.25001 9.69964 2.16699 10.0275 2.16699C10.3554 2.16699 10.6779 2.25001 10.965 2.40832L16.59 5.72498H16.5625Z" stroke="white" stroke-width="1.5" stroke-linecap="round" stroke-linejoin="round"/>
<path d="M10 13.8333V13.8416" stroke="white" stroke-width="1.5" stroke-linecap="round" stroke-linejoin="round"/>
<path d="M10 11.3334C10.3748 11.3345 10.739 11.2093 11.0339 10.9779C11.3287 10.7465 11.537 10.4225 11.625 10.0582C11.7131 9.69393 11.6758 9.31058 11.5191 8.9701C11.3625 8.62961 11.0956 8.35187 10.7617 8.18171C10.4301 8.01189 10.0509 7.95923 9.68567 8.03231C9.32043 8.10539 8.99066 8.29991 8.75 8.58421" stroke="white" stroke-width="1.5" stroke-linecap="round" stroke-linejoin="round"/>
</g>
<defs>
<clipPath id="clip0_701_24467">
<rect width="20" height="20" fill="white" transform="translate(0 0.5)"/>
</clipPath>
</defs>
</svg>
