<svg width="28" height="28" viewBox="0 0 28 28" fill="none" xmlns="http://www.w3.org/2000/svg">
<g clip-path="url(#clip0_181_43132)">
<path d="M19.0013 10.6667H12.3346C11.4142 10.6667 10.668 11.4129 10.668 12.3334V19.0001C10.668 19.9206 11.4142 20.6667 12.3346 20.6667H19.0013C19.9218 20.6667 20.668 19.9206 20.668 19.0001V12.3334C20.668 11.4129 19.9218 10.6667 19.0013 10.6667Z" stroke="#7A808A" stroke-width="1.25" stroke-linecap="round" stroke-linejoin="round"/>
<path d="M17.332 10.6666V8.99992C17.332 8.55789 17.1564 8.13397 16.8439 7.82141C16.5313 7.50885 16.1074 7.33325 15.6654 7.33325H8.9987C8.55667 7.33325 8.13275 7.50885 7.82019 7.82141C7.50763 8.13397 7.33203 8.55789 7.33203 8.99992V15.6666C7.33203 16.1086 7.50763 16.5325 7.82019 16.8451C8.13275 17.1577 8.55667 17.3333 8.9987 17.3333H10.6654" stroke="#7A808A" stroke-width="1.25" stroke-linecap="round" stroke-linejoin="round"/>
</g>
<defs>
<clipPath id="clip0_181_43132">
<rect width="20" height="20" fill="white" transform="translate(4 4)"/>
</clipPath>
</defs>
</svg>
