<svg width="22" height="22" viewBox="0 0 22 22" fill="none" xmlns="http://www.w3.org/2000/svg">
<g clip-path="url(#clip0_612_20301)">
<path d="M11.0007 11.9166C11.5069 11.9166 11.9173 11.5062 11.9173 10.9999C11.9173 10.4937 11.5069 10.0833 11.0007 10.0833C10.4944 10.0833 10.084 10.4937 10.084 10.9999C10.084 11.5062 10.4944 11.9166 11.0007 11.9166Z" stroke="#1C1F2C" stroke-width="1.25" stroke-linecap="round" stroke-linejoin="round"/>
<path d="M11.0007 18.3333C11.5069 18.3333 11.9173 17.9229 11.9173 17.4167C11.9173 16.9104 11.5069 16.5 11.0007 16.5C10.4944 16.5 10.084 16.9104 10.084 17.4167C10.084 17.9229 10.4944 18.3333 11.0007 18.3333Z" stroke="#1C1F2C" stroke-width="1.25" stroke-linecap="round" stroke-linejoin="round"/>
<path d="M11.0007 5.50008C11.5069 5.50008 11.9173 5.08968 11.9173 4.58341C11.9173 4.07715 11.5069 3.66675 11.0007 3.66675C10.4944 3.66675 10.084 4.07715 10.084 4.58341C10.084 5.08968 10.4944 5.50008 11.0007 5.50008Z" stroke="#1C1F2C" stroke-width="1.25" stroke-linecap="round" stroke-linejoin="round"/>
</g>
<defs>
<clipPath id="clip0_612_20301">
<rect width="22" height="22" fill="white"/>
</clipPath>
</defs>
</svg>
