<svg width="176" height="44" viewBox="0 0 176 44" fill="none" xmlns="http://www.w3.org/2000/svg">
<path d="M45.5977 4.46276C45.5977 1.8988 47.605 0 50.2973 0C51.5783 0 52.731 0.40266 53.5205 1.21981L53.106 1.63431C52.3283 0.892157 51.3848 0.59017 50.3229 0.59017C48.0057 0.59017 46.2569 2.25013 46.2569 4.46276C46.2569 6.67539 48.0057 8.33536 50.3229 8.33536C51.3848 8.33536 52.3303 8.02152 53.106 7.27937L53.5205 7.69387C52.731 8.51103 51.5783 8.92552 50.2973 8.92552C47.605 8.92552 45.5977 7.02673 45.5977 4.46276Z" fill="#1C1F2C"/>
<path d="M61.9874 8.28411V8.86244H55.7344V0.0632324H61.7939V0.641554H56.3956V4.1115H61.2255V4.67798H56.3956V8.28608H61.9893L61.9874 8.28411Z" fill="#1C1F2C"/>
<path d="M71.7746 0.0632324V8.86244H71.2318L65.0558 1.21988V8.86244H64.3945V0.0632324H64.9511L71.1134 7.70579V0.0632324H71.7746Z" fill="#1C1F2C"/>
<path d="M76.6709 0.641554H73.4082V0.0632324H80.5948V0.641554H77.3321V8.86244H76.6709V0.641554Z" fill="#1C1F2C"/>
<path d="M88.4776 8.28411V8.86244H82.2246V0.0632324H88.2842V0.641554H82.8858V4.1115H87.7157V4.67798H82.8858V8.28608H88.4796L88.4776 8.28411Z" fill="#1C1F2C"/>
<path d="M97.1792 8.86244L95.0179 5.92147C94.7337 5.95897 94.4475 5.98463 94.1376 5.98463H91.5479V8.86244H90.8867V0.0632324H94.1356C96.4134 0.0632324 97.7871 1.16856 97.7871 3.02985C97.7871 4.42533 97.0094 5.39249 95.6633 5.78331L97.9292 8.86244H97.1792ZM94.1356 5.41815C96.0778 5.41815 97.1141 4.53784 97.1141 3.02985C97.1141 1.52187 96.0778 0.641554 94.1356 0.641554H91.546V5.41815H94.1356Z" fill="#1C1F2C"/>
<path d="M104.194 0.641554V4.39967H109.024V4.97799H104.194V8.86244H103.533V0.0632324H109.593V0.641554H104.194Z" fill="#1C1F2C"/>
<path d="M110.721 4.46276C110.721 1.91064 112.728 0 115.434 0C118.14 0 120.148 1.8988 120.148 4.46276C120.148 7.02673 118.128 8.92552 115.434 8.92552C112.74 8.92552 110.721 7.01489 110.721 4.46276ZM119.473 4.46276C119.473 2.23829 117.738 0.59017 115.432 0.59017C113.127 0.59017 111.38 2.23632 111.38 4.46276C111.38 6.68921 113.115 8.33536 115.432 8.33536C117.749 8.33536 119.473 6.68921 119.473 4.46276Z" fill="#1C1F2C"/>
<path d="M128.73 8.86244L126.567 5.92147C126.282 5.95897 125.996 5.98463 125.686 5.98463H123.097V8.86244H122.436V0.0632324H125.684C127.962 0.0632324 129.336 1.16856 129.336 3.02985C129.336 4.42533 128.558 5.39249 127.212 5.78331L129.478 8.86244H128.728H128.73ZM125.686 5.41815C127.629 5.41815 128.665 4.53784 128.665 3.02985C128.665 1.52187 127.629 0.641554 125.686 0.641554H123.097V5.41815H125.686Z" fill="#1C1F2C"/>
<path d="M15.2081 15.1015C16.42 15.1015 17.4425 15.3699 18.2754 15.9068C19.1064 16.4437 19.7518 17.1306 20.2117 17.9714C20.6696 18.8103 20.946 19.7439 21.0387 20.7703C21.1315 21.7966 21.0466 22.8033 20.7821 23.7902C20.5176 24.7771 20.0755 25.683 19.4518 26.5081C18.83 27.3331 18.0366 27.9667 17.0734 28.4089C16.1082 28.853 14.9752 29.0385 13.6686 28.9694C12.3619 28.9003 10.8934 28.4681 9.26107 27.6746L9.44858 27.2779C10.7552 27.9154 11.9316 28.2391 12.9817 28.245C14.0317 28.2529 14.9515 28.0437 15.745 27.6154C16.5385 27.1871 17.1938 26.589 17.7149 25.8192C18.2359 25.0495 18.6248 24.2224 18.8814 23.3362C19.138 22.45 19.2544 21.544 19.2307 20.6183C19.207 19.6926 19.0432 18.8537 18.7412 18.0997C18.4373 17.3457 17.9912 16.7319 17.401 16.2582C16.8089 15.7844 16.0786 15.5476 15.2081 15.5476C14.1818 15.5476 13.2797 15.7884 12.502 16.27C11.7244 16.7516 11.0434 17.4089 10.4611 18.2398C9.87887 19.0708 9.37751 20.036 8.95709 21.1315C8.53667 22.2269 8.18337 23.3895 7.8952 24.6192C7.60702 25.8469 7.36621 27.1022 7.17278 28.3852C6.97738 29.6681 6.81158 30.9116 6.67144 32.1176C6.5313 33.3236 6.40695 34.4507 6.29839 35.4987C6.18983 36.5488 6.07337 37.4548 5.94902 38.2167L4.01273 38.1693C4.02852 37.7331 4.08971 37.0738 4.20024 36.1876C4.3088 35.3014 4.44105 34.2868 4.59698 33.144C4.75291 32.0012 4.90883 30.7735 5.06279 29.4589C5.21872 28.1444 5.35097 26.8357 5.45953 25.5291C5.56808 24.2224 5.63125 22.9671 5.64704 21.7631C5.66283 20.5591 5.60361 19.4932 5.47137 18.5675C5.33912 17.6418 5.11806 16.9036 4.8062 16.3529C4.49434 15.8002 4.068 15.5239 3.52323 15.5239C3.05741 15.5239 2.70607 15.7035 2.47317 16.0608C2.24026 16.418 2.08433 16.8463 2.00735 17.3437C1.9284 17.8411 1.89484 18.3543 1.90273 18.8833C1.91063 19.4123 1.91458 19.8465 1.91458 20.19C1.91458 20.4544 1.81392 20.6676 1.61062 20.8314C1.40731 20.9953 1.1902 21.088 0.957288 21.1117C0.72438 21.1354 0.505288 21.0723 0.303961 20.9242C0.102633 20.7762 0 20.5314 0 20.19C0 19.5682 0.0809239 18.9544 0.244749 18.3484C0.408575 17.7424 0.641479 17.1977 0.94347 16.7161C1.24744 16.2345 1.61653 15.8417 2.05077 15.5377C2.485 15.2337 2.97648 15.0837 3.51928 15.0837C4.35814 15.0837 5.03516 15.3838 5.54835 15.9818C6.06154 16.5799 6.45037 17.3773 6.71486 18.3721C6.97935 19.3669 7.13726 20.5097 7.19253 21.8006C7.24779 23.0915 7.24186 24.4277 7.18067 25.8113C7.47674 24.4119 7.83796 23.0678 8.2643 21.7769C8.69261 20.486 9.22356 19.3471 9.8611 18.3602C10.4986 17.3733 11.2566 16.5838 12.1349 15.9937C13.0133 15.4035 14.0357 15.1074 15.2022 15.1074L15.2081 15.1015Z" fill="#1C1F2C"/>
<path d="M27.7543 28.1996L27.474 29.4333C27.3654 29.8675 27.2095 30.3254 27.0082 30.8051C26.8068 31.2867 26.5542 31.7308 26.2502 32.1433C25.9463 32.5538 25.593 32.8913 25.1883 33.1539C24.7837 33.4184 24.3179 33.5486 23.7889 33.5486C23.0112 33.5486 22.3855 33.3394 21.9118 32.921C21.4381 32.5025 21.1026 31.9755 20.9091 31.3399C20.7157 30.7044 20.6525 30.0175 20.7236 29.2813C20.7927 28.545 20.9841 27.8582 21.294 27.2226C21.6059 26.587 22.0322 26.06 22.577 25.6416C23.1218 25.2231 23.7731 25.0139 24.535 25.0139C24.8765 25.0139 25.1607 25.083 25.3857 25.2231C25.6107 25.3633 25.7706 25.537 25.8634 25.7462C25.9561 25.9554 25.9838 26.1844 25.9443 26.4331C25.9048 26.6818 25.8002 26.9206 25.6285 27.1535C25.4568 27.3864 25.2357 27.5759 24.9633 27.7239C24.6909 27.872 24.4107 28.0022 24.1245 28.1187C23.8363 28.2352 23.5599 28.3516 23.2974 28.4681C23.0329 28.5845 22.8316 28.7128 22.6915 28.851C22.5987 29.3622 22.5434 29.8754 22.5276 30.3866C22.5119 30.8978 22.5474 31.3557 22.6323 31.7584C22.7171 32.161 22.8533 32.4907 23.0408 32.7473C23.2283 33.0039 23.4751 33.1302 23.7869 33.1302C24.2231 33.1302 24.6179 33.0098 24.9771 32.769C25.3344 32.5282 25.6463 32.2301 25.9107 31.8729C26.1752 31.5156 26.4002 31.1248 26.5878 30.6985C26.7753 30.2721 26.9134 29.8734 27.0082 29.5004L27.2884 28.1977H27.7543V28.1996ZM24.8627 25.5271C24.6297 25.5271 24.4107 25.6021 24.2093 25.7482C24.008 25.8962 23.8165 26.0896 23.6389 26.3304C23.4593 26.5712 23.3014 26.8555 23.1612 27.1811C23.0211 27.5068 22.9046 27.8582 22.8119 28.2312C22.9994 28.1384 23.2126 28.0417 23.4534 27.9391C23.6942 27.8384 23.931 27.7378 24.1639 27.6351C24.3968 27.5345 24.614 27.418 24.8173 27.2858C25.0186 27.1535 25.1824 27.0015 25.3068 26.8318C25.3995 26.7232 25.4627 26.591 25.4943 26.4351C25.5259 26.2791 25.5259 26.135 25.4943 26.0028C25.4627 25.8705 25.3976 25.758 25.2969 25.6653C25.1962 25.5725 25.0521 25.5251 24.8646 25.5251L24.8627 25.5271Z" fill="#1C1F2C"/>
<path d="M38.3216 28.1836C38.1973 28.8212 38.0414 29.4626 37.8558 30.1081C37.6683 30.7535 37.4552 31.3318 37.2144 31.845C36.9735 32.3582 36.6893 32.7747 36.3636 33.0925C36.038 33.4122 35.6708 33.5701 35.2682 33.5701C34.8655 33.5701 34.5181 33.4852 34.23 33.3135C33.9418 33.1418 33.701 32.9128 33.5076 32.6247C33.3122 32.3365 33.1621 32.0029 33.0536 31.622C32.945 31.241 32.8661 30.8325 32.8207 30.3982C32.6963 30.7871 32.5364 31.172 32.343 31.5529C32.1476 31.9338 31.9305 32.2753 31.6897 32.5793C31.4489 32.8832 31.1804 33.128 30.8844 33.3135C30.5883 33.501 30.2705 33.5938 29.9291 33.5938C29.2303 33.5938 28.6579 33.3806 28.2138 32.9523C27.7697 32.524 27.4559 31.9931 27.2684 31.3555C27.0809 30.718 27.0236 30.0311 27.0927 29.2909C27.1618 28.5527 27.3532 27.8639 27.6631 27.2263C27.975 26.5888 28.4092 26.0559 28.9698 25.6295C29.5303 25.2012 30.2054 24.988 30.9989 24.988C31.4193 24.988 31.8042 25.0808 32.1535 25.2683C32.5029 25.4539 32.7792 25.742 32.9805 26.1309C33.0121 25.9137 33.0378 25.7223 33.0615 25.5604C33.0852 25.3986 33.1049 25.2545 33.1207 25.1282L35.0333 25.1973C35.0017 25.4302 34.9326 25.7874 34.8241 26.269C34.7155 26.7506 34.603 27.2875 34.4866 27.8777C34.3701 28.4698 34.2773 29.0758 34.2063 29.6975C34.1372 30.3193 34.1135 30.8838 34.1372 31.3891C34.1609 31.8944 34.2576 32.3108 34.4293 32.6365C34.601 32.9622 34.8793 33.126 35.2682 33.126C35.5939 33.126 35.8899 32.978 36.1544 32.6819C36.4189 32.3858 36.6597 32.0049 36.8768 31.5391C37.0939 31.0733 37.2815 30.5443 37.4374 29.9541C37.5933 29.364 37.7335 28.7718 37.8578 28.1816H38.3236L38.3216 28.1836ZM32.7713 28.7442C32.7713 28.3238 32.795 27.9053 32.8404 27.4849C32.8404 26.8474 32.7003 26.3579 32.42 26.0164C32.1397 25.6749 31.814 25.5032 31.441 25.5032C30.989 25.5032 30.5982 25.6947 30.2626 26.0756C29.9271 26.4565 29.6527 26.9263 29.4356 27.4869C29.2185 28.0474 29.0665 28.6613 28.9816 29.3284C28.8968 29.9975 28.8731 30.6114 28.9125 31.17C28.952 31.7305 29.0566 32.2003 29.2284 32.5813C29.4001 32.9622 29.633 33.1517 29.9271 33.1517C30.3159 33.1517 30.6771 32.9918 31.0107 32.674C31.3443 32.3562 31.6324 31.9713 31.8732 31.5193C32.1141 31.0693 32.3114 30.5857 32.4674 30.0725C32.6233 29.5594 32.724 29.1172 32.7713 28.7422V28.7442Z" fill="#1C1F2C"/>
<path d="M44.6859 28.1839L44.4056 29.4195C44.2971 29.8557 44.1412 30.3136 43.9398 30.7952C43.7385 31.2768 43.4858 31.7249 43.1819 32.1354C42.8779 32.5479 42.5246 32.8855 42.12 33.1499C41.7153 33.4144 41.2495 33.5467 40.7206 33.5467C39.9429 33.5467 39.3172 33.3375 38.8435 32.919C38.3698 32.5006 38.0342 31.9736 37.8408 31.338C37.6473 30.7024 37.5842 30.0155 37.6552 29.2793C37.7243 28.5431 37.9158 27.8562 38.2257 27.2206C38.5375 26.5851 38.9639 26.0581 39.5086 25.6396C40.0534 25.2212 40.7048 25.012 41.4666 25.012C41.8713 25.012 42.2049 25.1087 42.4693 25.3041C42.7338 25.4995 42.8661 25.7975 42.8661 26.2022H42.4457C42.4457 25.9693 42.3785 25.7975 42.2483 25.689C42.116 25.5804 41.9641 25.5252 41.7943 25.5252C41.4055 25.5252 41.0561 25.7127 40.7442 26.0857C40.4324 26.4588 40.1758 26.9285 39.9745 27.497C39.7712 28.0654 39.6251 28.6753 39.5304 29.3287C39.4356 29.982 39.4178 30.5919 39.4711 31.1604C39.5264 31.7288 39.6527 32.1986 39.856 32.5716C40.0574 32.9447 40.3455 33.1322 40.7186 33.1322C41.1548 33.1322 41.5495 33.0118 41.9088 32.771C42.266 32.5302 42.5779 32.2302 42.8424 31.8729C43.1069 31.5156 43.3319 31.1229 43.5194 30.6945C43.7069 30.2662 43.8451 29.8675 43.9398 29.4945L44.2201 28.1878H44.6859V28.1839Z" fill="#1C1F2C"/>
<path d="M51.0551 28.1996L50.7748 29.4333C50.6662 29.8675 50.5103 30.3254 50.309 30.8051C50.1076 31.2867 49.855 31.7308 49.551 32.1433C49.2471 32.5538 48.8937 32.8913 48.4891 33.1539C48.0845 33.4184 47.6187 33.5486 47.0897 33.5486C46.312 33.5486 45.6863 33.3394 45.2126 32.921C44.7389 32.5025 44.4034 31.9755 44.2099 31.3399C44.0165 30.7044 43.9533 30.0175 44.0244 29.2813C44.0935 28.545 44.2849 27.8582 44.5948 27.2226C44.9067 26.587 45.333 26.06 45.8778 25.6416C46.4226 25.2231 47.0739 25.0139 47.8358 25.0139C48.1773 25.0139 48.4615 25.083 48.6865 25.2231C48.9115 25.3633 49.0714 25.537 49.1642 25.7462C49.2569 25.9554 49.2846 26.1844 49.2451 26.4331C49.2056 26.6818 49.101 26.9206 48.9293 27.1535C48.7575 27.3864 48.5365 27.5759 48.2641 27.7239C47.9917 27.872 47.7114 28.0022 47.4252 28.1187C47.1371 28.2352 46.8607 28.3516 46.5982 28.4681C46.3337 28.5845 46.1324 28.7128 45.9923 28.851C45.8995 29.3622 45.8442 29.8754 45.8284 30.3866C45.8126 30.8978 45.8482 31.3557 45.933 31.7584C46.0179 32.161 46.1541 32.4907 46.3416 32.7473C46.5291 33.0039 46.7759 33.1302 47.0877 33.1302C47.5239 33.1302 47.9187 33.0098 48.2779 32.769C48.6352 32.5282 48.947 32.2301 49.2115 31.8729C49.476 31.5156 49.701 31.1248 49.8885 30.6985C50.0761 30.2721 50.2142 29.8734 50.309 29.5004L50.5892 28.1977H51.0551V28.1996ZM48.1634 25.5271C47.9305 25.5271 47.7114 25.6021 47.5101 25.7482C47.3088 25.8962 47.1173 26.0896 46.9397 26.3304C46.7601 26.5712 46.6022 26.8555 46.462 27.1811C46.3219 27.5068 46.2054 27.8582 46.1127 28.2312C46.3002 28.1384 46.5133 28.0417 46.7541 27.9391C46.995 27.8384 47.2318 27.7378 47.4647 27.6351C47.6976 27.5345 47.9147 27.418 48.118 27.2858C48.3194 27.1535 48.4832 27.0015 48.6076 26.8318C48.7003 26.7232 48.7635 26.591 48.7951 26.4351C48.8266 26.2791 48.8266 26.135 48.7951 26.0028C48.7635 25.8705 48.6983 25.758 48.5977 25.6653C48.497 25.5725 48.3529 25.5251 48.1654 25.5251L48.1634 25.5271Z" fill="#1C1F2C"/>
<path d="M68.8465 20.7686C69.188 20.816 69.4327 20.9443 69.5807 21.1535C69.7288 21.3627 69.7939 21.5818 69.7781 21.8068C69.7623 22.0318 69.6696 22.2391 69.4978 22.4246C69.3261 22.6121 69.0932 22.7049 68.7991 22.7049C68.503 22.6891 68.2465 22.774 68.0293 22.9615C67.8122 23.149 67.6168 23.4056 67.4471 23.7313C67.2753 24.0569 67.1174 24.43 66.9694 24.8504C66.8214 25.2708 66.6694 25.6972 66.5154 26.1334C66.7799 26.5222 66.9438 26.9959 67.0049 27.5565C67.0661 28.117 67.0484 28.6993 66.9457 29.3053C66.8451 29.9112 66.6536 30.5152 66.3753 31.1133C66.095 31.7113 65.7457 32.2443 65.3252 32.7101C64.9048 33.1759 64.4114 33.5568 63.8449 33.8529C63.2764 34.149 62.6507 34.297 61.9678 34.297C60.8802 34.297 59.9624 34.0562 59.2163 33.5746C58.4702 33.093 57.9018 32.4791 57.5149 31.733C57.1261 30.9869 56.9129 30.1678 56.8734 29.2717C56.8339 28.3776 56.982 27.515 57.3175 26.6821C57.6511 25.8511 58.1643 25.111 58.8571 24.4655C59.5479 23.8201 60.4322 23.374 61.504 23.1253C60.7263 22.9082 60.1085 22.5549 59.6506 22.0634C59.1907 21.5739 58.8808 21.0252 58.717 20.4192C58.5531 19.8133 58.5373 19.1915 58.6696 18.554C58.8018 17.9164 59.0821 17.3342 59.5085 16.8052C59.9368 16.2762 60.4993 15.842 61.2 15.4985C61.8987 15.1571 62.7396 14.9854 63.7186 14.9854C64.3087 14.9854 64.8298 15.0979 65.2818 15.3229C65.7318 15.5479 66.1128 15.8519 66.4246 16.2328C66.7365 16.6137 66.9734 17.0539 67.1352 17.5513C67.299 18.0487 67.38 18.5698 67.38 19.1145H66.9358C66.9358 18.6329 66.8668 18.1671 66.7266 17.7151C66.5865 17.2651 66.3852 16.8723 66.1207 16.5368C65.8562 16.2032 65.5226 15.9348 65.118 15.7315C64.7134 15.5301 64.2475 15.4275 63.7186 15.4275C63.081 15.4275 62.5284 15.615 62.0625 15.988C61.5967 16.3611 61.2336 16.8249 60.977 17.3756C60.7204 17.9283 60.5684 18.5303 60.523 19.1836C60.4776 19.837 60.5427 20.439 60.7204 20.9916C60.9 21.5443 61.198 22.0062 61.6184 22.3792C62.0389 22.7523 62.5816 22.9398 63.2508 22.9398V23.3602C62.3487 23.3602 61.5829 23.6207 60.9533 24.1418C60.3236 24.6629 59.8262 25.3123 59.4611 26.09C59.0959 26.8676 58.8749 27.7104 58.7959 28.6204C58.7189 29.5303 58.7801 30.3731 58.9834 31.1508C59.1847 31.9285 59.5361 32.5778 60.0335 33.0989C60.5309 33.62 61.1763 33.8805 61.9698 33.8805C62.5757 33.8805 63.1284 33.7562 63.6258 33.5075C64.1232 33.2588 64.5633 32.9292 64.9443 32.5166C65.3252 32.1041 65.6391 31.6422 65.8897 31.1291C66.1384 30.6159 66.324 30.0908 66.4503 29.554C66.5747 29.0171 66.626 28.496 66.6023 27.9907C66.5786 27.4854 66.4819 27.0453 66.3102 26.6722C66.17 27.0137 66.018 27.3453 65.8562 27.6631C65.6924 27.9828 65.5029 28.2611 65.2838 28.5019C65.0667 28.7427 64.8219 28.9342 64.5495 29.0743C64.2771 29.2145 63.9692 29.2836 63.6278 29.2836C63.2389 29.2836 62.9251 29.1829 62.6823 28.9796C62.4415 28.7783 62.2658 28.5217 62.1573 28.2098C62.0487 27.898 62.0171 27.5644 62.0645 27.2071C62.1119 26.8499 62.2323 26.5163 62.4257 26.2044C62.6192 25.8946 62.8955 25.638 63.2547 25.4347C63.612 25.2333 64.0561 25.1307 64.5831 25.1307C65.1436 25.1307 65.6174 25.2866 66.0062 25.5965C66.1779 25.0221 66.3477 24.4418 66.5194 23.8596C66.6911 23.2773 66.8806 22.7523 67.0898 22.2845C67.299 21.8167 67.5438 21.4417 67.8241 21.1535C68.1043 20.8653 68.4458 20.737 68.8504 20.7686H68.8465ZM63.6218 28.8375C63.9021 28.8375 64.1548 28.7645 64.3798 28.6164C64.6048 28.4684 64.8081 28.2671 64.9857 28.0105C65.1634 27.7539 65.3233 27.4578 65.4634 27.1242C65.6035 26.7907 65.7358 26.4294 65.8601 26.0386C65.5187 25.7287 65.0904 25.5728 64.5772 25.5728C63.9396 25.5728 63.4501 25.7445 63.1087 26.086C62.7672 26.4275 62.5639 26.8005 62.5027 27.2051C62.4395 27.6098 62.5066 27.9828 62.7001 28.3243C62.8935 28.6658 63.2014 28.8375 63.6218 28.8375Z" fill="#1C1F2C"/>
<path d="M84.9414 18.7395C84.9414 19.8902 85.1862 20.8238 85.6777 21.5383C86.1691 22.2528 86.785 22.8608 87.5252 23.3582C88.2653 23.8556 89.0647 24.3076 89.9213 24.7102C90.778 25.1149 91.5774 25.5846 92.3175 26.1215C93.0577 26.6584 93.6735 27.3216 94.165 28.115C94.6565 28.9085 94.9012 29.9349 94.9012 31.1942C94.9012 32.1278 94.7177 33.0456 94.3525 33.9456C93.9874 34.8477 93.4683 35.651 92.7991 36.3596C92.13 37.0662 91.3267 37.6386 90.3931 38.0728C89.4595 38.5091 88.4232 38.7262 87.2863 38.7262C86.4909 38.7262 85.7783 38.6216 85.1487 38.4123C84.5171 38.2031 83.9565 37.9228 83.467 37.5735C82.9775 37.2241 82.563 36.8155 82.2294 36.3497C81.8939 35.8839 81.6255 35.3944 81.4241 34.8812C80.8024 34.897 80.1333 34.8457 79.4168 34.7292C78.7023 34.6128 77.9246 34.4055 77.0837 34.1114C76.8035 34.0325 76.6219 33.8785 76.535 33.6456C76.4502 33.4127 76.4423 33.1837 76.5113 32.9568C76.5804 32.7317 76.7127 32.5403 76.9081 32.3844C77.1015 32.2284 77.3403 32.1909 77.6186 32.2679C78.8779 32.7041 80.005 32.9666 80.9998 33.0614C80.9524 32.4396 80.9958 31.8416 81.1281 31.2652C81.2603 30.6908 81.4735 30.1816 81.7695 29.7375C82.0656 29.2934 82.4426 28.9361 82.9005 28.6637C83.3585 28.3914 83.8993 28.2552 84.521 28.2552C85.1428 28.2552 85.6717 28.4072 86.0606 28.7091C86.4494 29.0131 86.706 29.398 86.8304 29.8638C86.9547 30.3296 86.9468 30.8389 86.8067 31.3915C86.6665 31.9442 86.3902 32.4653 85.9797 32.9548C85.5671 33.4443 85.0184 33.8647 84.3355 34.2141C83.6506 34.5634 82.8354 34.7766 81.886 34.8555C82.0735 35.3214 82.3242 35.7615 82.6439 36.174C82.9617 36.5866 83.3427 36.9517 83.7868 37.2695C84.2309 37.5873 84.7421 37.836 85.3263 38.0156C85.9086 38.1932 86.558 38.284 87.2745 38.284C88.1923 38.284 89.0075 38.0926 89.724 37.7136C90.4385 37.3327 91.0385 36.8313 91.5201 36.2096C92.0017 35.5878 92.3669 34.8832 92.6156 34.0996C92.8643 33.314 92.9886 32.5186 92.9886 31.7093C92.9886 30.7303 92.8445 29.9053 92.5564 29.2381C92.2682 28.569 91.8912 27.9946 91.4254 27.513C90.9596 27.0314 90.4306 26.6189 89.8384 26.2774C89.2483 25.936 88.6384 25.6083 88.0068 25.2984C87.3771 24.9866 86.7672 24.6569 86.1751 24.3076C85.5849 23.9582 85.0559 23.5378 84.5881 23.0483C84.1223 22.5588 83.7453 21.9686 83.4571 21.2758C83.169 20.585 83.0249 19.7402 83.0249 18.7454C83.0249 17.9993 83.1769 17.2966 83.4789 16.6354C83.7828 15.9742 84.1973 15.3959 84.7263 14.8985C85.2553 14.4011 85.8691 14.0043 86.5679 13.7083C87.2666 13.4122 88.0068 13.2642 88.7844 13.2642C89.9352 13.2642 90.8727 13.4971 91.5951 13.9629C92.3175 14.4287 92.8544 15.0169 93.2038 15.7235C93.5531 16.4301 93.7327 17.192 93.7406 18.0092C93.7485 18.8263 93.6045 19.5882 93.3084 20.2948C93.0123 21.0015 92.582 21.5896 92.0136 22.0555C91.4451 22.5213 90.7661 22.7542 89.9727 22.7542C89.7397 22.7542 89.5601 22.6535 89.4358 22.4502C89.3114 22.2489 89.2463 22.0259 89.2384 21.7851C89.2305 21.5442 89.2878 21.3232 89.4141 21.1199C89.5384 20.9186 89.724 20.8159 89.9727 20.8159C90.6418 20.8159 91.2122 20.6402 91.6879 20.2909C92.1616 19.9415 92.511 19.5014 92.738 18.9724C92.963 18.4434 93.0597 17.869 93.0301 17.2473C92.9985 16.6255 92.8287 16.0512 92.5169 15.5222C92.205 14.9932 91.7432 14.555 91.1293 14.2037C90.5155 13.8543 89.7338 13.6787 88.7844 13.6787C88.0699 13.6787 87.4659 13.8148 86.9764 14.0872C86.4869 14.3596 86.0902 14.7248 85.7862 15.1827C85.4823 15.6406 85.2652 16.1775 85.1329 16.7913C85.0007 17.4052 84.9355 18.0546 84.9355 18.7395H84.9414ZM84.521 28.6756C83.9763 28.6756 83.4986 28.7999 83.0861 29.0486C82.6736 29.2973 82.34 29.6289 82.0834 30.0395C81.8268 30.452 81.6432 30.9257 81.5347 31.4626C81.4261 31.9995 81.3945 32.5462 81.4419 33.1068C82.3893 33.1699 83.1946 33.1028 83.8559 32.9094C84.5171 32.716 85.046 32.4515 85.4428 32.1159C85.8395 31.7823 86.108 31.4172 86.2481 31.0205C86.3882 30.6237 86.4159 30.2507 86.329 29.9013C86.2442 29.552 86.0448 29.2598 85.7349 29.0269C85.4231 28.794 85.0204 28.6776 84.523 28.6776L84.521 28.6756Z" fill="#1C1F2C"/>
<path d="M106.768 28.1841L106.559 29.1394C106.342 30.0572 105.977 30.7066 105.464 31.0875C104.95 31.4685 104.344 31.6895 103.644 31.7527C103.302 32.3291 102.854 32.8028 102.304 33.1758C101.751 33.5489 101.08 33.7364 100.286 33.7364C99.7732 33.7364 99.3922 33.5844 99.1435 33.2824C98.8948 32.9784 98.806 32.6567 98.8751 32.3152C98.9442 31.9738 99.181 31.6737 99.5857 31.4172C99.9903 31.1606 100.596 31.0875 101.405 31.1961C101.53 31.2277 101.654 31.2474 101.779 31.2553C101.903 31.2632 102.027 31.275 102.152 31.2908C102.339 30.7165 102.456 30.0829 102.501 29.3901C102.548 28.6992 102.529 28.0617 102.442 27.4774C102.357 26.8952 102.201 26.4037 101.976 26.0089C101.751 25.6122 101.467 25.4148 101.125 25.4148C100.721 25.4148 100.348 25.5826 100.006 25.9162C99.6646 26.2497 99.3685 26.6583 99.1198 27.1399C98.8711 27.6215 98.6718 28.1229 98.5257 28.644C98.3777 29.165 98.2968 29.6111 98.281 29.9842C98.2652 30.4816 98.2336 31.1704 98.1882 32.0488C98.1408 32.9271 98.056 33.8864 97.9316 34.9285C97.8073 35.9707 97.6395 37.0267 97.4303 38.1004C97.221 39.1742 96.9408 40.1492 96.5914 41.0276C96.242 41.9059 95.8098 42.6204 95.2966 43.1731C94.7834 43.7238 94.1695 44.0001 93.455 44.0001C92.9103 44.0001 92.5135 43.8205 92.2648 43.4633C92.0161 43.106 91.876 42.6777 91.8444 42.1803C91.797 41.4342 91.9115 40.6407 92.1819 39.8019C92.4543 38.963 92.8116 38.1419 93.2557 37.3405C93.6998 36.5392 94.1932 35.7812 94.736 35.0667C95.2808 34.3522 95.8019 33.7522 96.2993 33.2706C96.3466 32.3369 96.3802 31.429 96.4039 30.5428C96.4276 29.6565 96.4434 28.8275 96.4513 28.0597C96.4592 27.2899 96.4631 26.605 96.4631 26.007V24.6194H98.3757V25.9833C98.3757 26.5201 98.3678 27.1222 98.352 27.7913C98.4922 27.4024 98.656 27.0294 98.8415 26.6721C99.029 26.3149 99.2501 25.9951 99.5067 25.7168C99.7633 25.4385 100.051 25.2155 100.369 25.0516C100.687 24.8878 101.034 24.8069 101.407 24.8069C102.122 24.8069 102.714 25.0201 103.18 25.4484C103.646 25.8767 103.981 26.4116 104.183 27.057C104.384 27.7025 104.459 28.4051 104.404 29.167C104.348 29.9289 104.175 30.6434 103.879 31.3125C104.408 31.2356 104.866 31.0402 105.254 30.7303C105.643 30.4184 105.924 29.9131 106.093 29.2144C106.141 29.0427 106.182 28.8729 106.222 28.7012C106.261 28.5295 106.295 28.3597 106.326 28.188H106.77L106.768 28.1841ZM93.4511 43.554C93.8873 43.554 94.2643 43.2777 94.5821 42.727C94.9018 42.1744 95.1683 41.448 95.3874 40.546C95.6045 39.644 95.7841 38.6176 95.9243 37.4669C96.0644 36.3161 96.1729 35.1338 96.2499 33.9219C95.8157 34.3719 95.3558 34.9325 94.8742 35.6016C94.3926 36.2707 93.9524 36.9773 93.5557 37.7234C93.159 38.4695 92.8372 39.2275 92.5885 39.9973C92.3398 40.767 92.2392 41.4855 92.2846 42.1546C92.3161 42.5435 92.4129 42.8731 92.5767 43.1455C92.7405 43.4179 93.0307 43.554 93.4511 43.554ZM100.284 33.3159C100.673 33.3159 101.011 33.164 101.299 32.862C101.587 32.558 101.816 32.1731 101.988 31.7073L101.358 31.6382C100.721 31.5454 100.235 31.581 99.9015 31.7428C99.5659 31.9067 99.3685 32.104 99.3073 32.3369C99.2442 32.5698 99.2995 32.7909 99.4712 33.0021C99.6429 33.2113 99.9153 33.3159 100.288 33.3159H100.284Z" fill="#1C1F2C"/>
<path d="M111.711 28.1837C111.587 28.8212 111.435 29.4627 111.257 30.1081C111.078 30.7535 110.865 31.3319 110.616 31.8451C110.367 32.3582 110.079 32.7747 109.753 33.0925C109.428 33.4123 109.061 33.5702 108.658 33.5702C108.082 33.5702 107.628 33.3886 107.294 33.0214C106.96 32.6563 106.712 32.1905 106.548 31.622C106.384 31.0536 106.291 30.4239 106.268 29.7331C106.244 29.0423 106.256 28.3613 106.303 27.6922C106.351 27.0231 106.412 26.4092 106.491 25.8506C106.568 25.292 106.631 24.8637 106.678 24.5677L108.615 24.6367C108.583 24.8697 108.506 25.2427 108.382 25.7559C108.257 26.2691 108.133 26.8415 108.009 27.4711C107.884 28.1008 107.78 28.7501 107.693 29.4193C107.608 30.0884 107.572 30.6983 107.588 31.2509C107.604 31.8036 107.689 32.2536 107.845 32.603C108.001 32.9524 108.273 33.128 108.662 33.128C108.988 33.128 109.288 32.98 109.56 32.6839C109.832 32.3878 110.077 32.0069 110.294 31.5411C110.511 31.0753 110.699 30.5463 110.855 29.9561C111.011 29.366 111.151 28.7738 111.275 28.1837H111.719H111.711ZM107.805 23.9854C107.545 23.9854 107.318 23.8887 107.124 23.6933C106.933 23.4998 106.836 23.2689 106.836 23.0044C106.836 22.7399 106.933 22.5149 107.124 22.3274C107.316 22.1399 107.543 22.0471 107.805 22.0471C108.068 22.0471 108.289 22.1399 108.472 22.3274C108.656 22.5149 108.749 22.7399 108.749 23.0044C108.749 23.2689 108.656 23.4979 108.472 23.6933C108.289 23.8887 108.066 23.9854 107.805 23.9854Z" fill="#1C1F2C"/>
<path d="M119.037 28.1838C118.913 28.8214 118.757 29.4629 118.571 30.1083C118.384 30.7537 118.171 31.3321 117.93 31.8452C117.689 32.3584 117.405 32.7749 117.079 33.0927C116.753 33.4124 116.386 33.5703 115.984 33.5703C115.502 33.5703 115.109 33.4105 114.805 33.0927C114.501 32.7749 114.26 32.3545 114.083 31.8334C113.903 31.3123 113.775 30.734 113.698 30.0965C113.619 29.4589 113.581 28.8174 113.581 28.172C113.581 27.5266 113.605 26.9127 113.651 26.3304C113.696 25.7482 113.743 25.2606 113.791 24.8738C113.479 24.858 113.197 24.8422 112.94 24.8264C112.683 24.8106 112.439 24.7869 112.206 24.7573C112.174 25.162 112.113 25.7107 112.018 26.4015C111.925 27.0943 111.801 27.8207 111.645 28.5826H111.179C111.351 27.7891 111.483 27.043 111.576 26.3443C111.669 25.6455 111.74 25.1008 111.785 24.7119C110.915 24.5718 110.281 24.2915 109.885 23.8731C109.488 23.4546 109.283 23.0184 109.267 22.5664C109.251 22.1164 109.399 21.7157 109.711 21.3663C110.023 21.017 110.457 20.8413 111.018 20.8413C111.298 20.8413 111.527 20.9301 111.706 21.1098C111.886 21.2894 112.022 21.5223 112.115 21.8085C112.208 22.0967 112.263 22.4302 112.279 22.8112C112.295 23.1921 112.295 23.5928 112.279 24.0132C112.512 24.106 112.776 24.177 113.072 24.2224C113.368 24.2698 113.67 24.2994 113.982 24.3152C114.294 24.331 114.6 24.3389 114.904 24.3389H115.755C115.723 24.5876 115.654 24.9725 115.545 25.4936C115.437 26.0146 115.324 26.6009 115.208 27.2542C115.091 27.9075 114.999 28.5806 114.928 29.2714C114.859 29.9642 114.835 30.5978 114.859 31.1722C114.882 31.7485 114.979 32.2183 115.151 32.5834C115.322 32.9486 115.601 33.1322 115.99 33.1322C116.315 33.1322 116.611 32.9841 116.876 32.6881C117.14 32.392 117.381 32.0111 117.598 31.5452C117.815 31.0794 118.003 30.5504 118.159 29.9603C118.315 29.3701 118.455 28.778 118.579 28.1878H119.045L119.037 28.1838ZM111.854 23.8218C111.87 23.4803 111.87 23.1526 111.854 22.8427C111.839 22.5309 111.799 22.2605 111.738 22.0256C111.675 21.7927 111.586 21.6052 111.47 21.465C111.353 21.3249 111.201 21.2558 111.016 21.2558C110.814 21.2558 110.67 21.3486 110.583 21.5361C110.498 21.7236 110.487 21.9526 110.548 22.2249C110.611 22.4973 110.745 22.7816 110.956 23.0757C111.166 23.3717 111.466 23.6204 111.854 23.8218Z" fill="#1C1F2C"/>
<path d="M123.983 28.1837C123.859 28.8212 123.707 29.4627 123.529 30.1081C123.349 30.7535 123.136 31.3319 122.887 31.8451C122.639 32.3582 122.351 32.7747 122.025 33.0925C121.699 33.4123 121.332 33.5702 120.929 33.5702C120.353 33.5702 119.899 33.3886 119.566 33.0214C119.232 32.6563 118.983 32.1905 118.819 31.622C118.656 31.0536 118.563 30.4239 118.539 29.7331C118.516 29.0423 118.527 28.3613 118.575 27.6922C118.622 27.0231 118.683 26.4092 118.762 25.8506C118.839 25.292 118.902 24.8637 118.95 24.5677L120.886 24.6367C120.854 24.8697 120.777 25.2427 120.653 25.7559C120.529 26.2691 120.404 26.8415 120.28 27.4711C120.156 28.1008 120.051 28.7501 119.964 29.4193C119.879 30.0884 119.844 30.6983 119.86 31.2509C119.875 31.8036 119.96 32.2536 120.116 32.603C120.272 32.9524 120.545 33.128 120.933 33.128C121.259 33.128 121.559 32.98 121.831 32.6839C122.104 32.3878 122.349 32.0069 122.566 31.5411C122.783 31.0753 122.97 30.5463 123.126 29.9561C123.282 29.366 123.422 28.7738 123.547 28.1837H123.991H123.983ZM120.077 23.9854C119.816 23.9854 119.589 23.8887 119.396 23.6933C119.204 23.4998 119.108 23.2689 119.108 23.0044C119.108 22.7399 119.204 22.5149 119.396 22.3274C119.587 22.1399 119.814 22.0471 120.077 22.0471C120.339 22.0471 120.56 22.1399 120.744 22.3274C120.927 22.5149 121.02 22.7399 121.02 23.0044C121.02 23.2689 120.927 23.4979 120.744 23.6933C120.56 23.8887 120.337 23.9854 120.077 23.9854Z" fill="#1C1F2C"/>
<path d="M129.277 28.1842C129.152 28.8217 129 29.4632 128.823 30.1086C128.643 30.754 128.43 31.3324 128.181 31.8455C127.932 32.3587 127.648 32.7752 127.33 33.093C127.011 33.4127 126.65 33.5706 126.245 33.5706C125.607 33.5706 125.098 33.3338 124.717 32.8601C124.336 32.3864 124.048 31.7567 123.855 30.9712C123.659 30.1856 123.543 29.2875 123.505 28.2769C123.466 27.2663 123.47 26.2242 123.517 25.1524C123.564 24.0787 123.641 23.0148 123.75 21.9568C123.859 20.8989 123.967 19.9277 124.076 19.0415C123.624 18.9645 123.205 18.9527 122.816 19.006C122.428 19.0612 122.11 19.2507 121.861 19.5784L121.512 19.2981C121.824 18.8935 122.21 18.6566 122.678 18.5875C123.146 18.5185 123.626 18.5224 124.125 18.5994C124.218 17.9934 124.289 17.4408 124.334 16.9434L126.247 16.967L125.99 18.9961C126.44 19.0889 126.861 19.1363 127.25 19.1363C127.638 19.1363 127.948 19.0119 128.183 18.7632L128.509 19.0672C128.197 19.379 127.816 19.5409 127.366 19.5567C126.914 19.5725 126.44 19.5251 125.943 19.4165C125.834 20.2712 125.726 21.2009 125.617 22.2035C125.509 23.2062 125.412 24.2168 125.325 25.2353C125.24 26.2538 125.181 27.2367 125.149 28.1861C125.118 29.1355 125.13 29.9744 125.185 30.7047C125.24 31.435 125.353 32.0232 125.522 32.4653C125.694 32.9094 125.935 33.1305 126.245 33.1305C126.571 33.1305 126.867 32.9825 127.131 32.6864C127.396 32.3903 127.636 32.0094 127.854 31.5436C128.071 31.0777 128.258 30.5488 128.414 29.9586C128.57 29.3684 128.71 28.7763 128.835 28.1861H129.279L129.277 28.1842Z" fill="#1C1F2C"/>
<path d="M139.398 28.1837C139.274 28.8212 139.118 29.4627 138.932 30.1081C138.745 30.7535 138.532 31.3319 138.291 31.845C138.05 32.3582 137.766 32.7747 137.44 33.0925C137.115 33.4122 136.747 33.5701 136.345 33.5701C135.942 33.5701 135.567 33.4774 135.271 33.2899C134.975 33.1024 134.73 32.8517 134.537 32.5319C134.341 32.2142 134.195 31.847 134.095 31.4365C133.994 31.0239 133.919 30.5858 133.874 30.118C133.733 30.5838 133.585 31.0279 133.429 31.4464C133.274 31.8668 133.096 32.2319 132.893 32.5418C132.691 32.8537 132.456 33.1024 132.194 33.2879C131.929 33.4754 131.625 33.5682 131.284 33.5682C130.708 33.5682 130.25 33.3866 129.908 33.0195C129.567 32.6543 129.306 32.1885 129.127 31.62C128.947 31.0516 128.842 30.4219 128.813 29.7311C128.781 29.0403 128.781 28.3593 128.813 27.6902C128.844 27.0211 128.898 26.4072 128.977 25.8486C129.054 25.2901 129.117 24.8617 129.164 24.5657L131.077 24.6348C131.045 24.8677 130.976 25.2407 130.867 25.7539C130.759 26.2671 130.646 26.8395 130.53 27.4691C130.414 28.0988 130.317 28.7482 130.238 29.4173C130.159 30.0864 130.137 30.6963 130.169 31.249C130.2 31.8016 130.297 32.2517 130.461 32.601C130.625 32.9504 130.899 33.126 131.29 33.126C131.681 33.126 131.989 32.9543 132.269 32.6129C132.549 32.2714 132.79 31.8352 132.991 31.3062C133.193 30.7772 133.36 30.1831 133.493 29.5219C133.625 28.8607 133.737 28.2152 133.83 27.5856C133.923 26.956 133.998 26.3697 134.051 25.825C134.105 25.2802 134.156 24.8617 134.203 24.5657L136.116 24.6348C136.084 24.8677 136.015 25.2407 135.907 25.7539C135.798 26.2671 135.686 26.8395 135.569 27.4691C135.453 28.0988 135.36 28.7482 135.289 29.4173C135.22 30.0864 135.196 30.6963 135.22 31.249C135.243 31.8016 135.34 32.2517 135.512 32.601C135.684 32.9504 135.962 33.126 136.351 33.126C136.676 33.126 136.972 32.978 137.237 32.6819C137.501 32.3859 137.742 32.0049 137.959 31.5391C138.176 31.0733 138.364 30.5443 138.52 29.9542C138.676 29.364 138.816 28.7718 138.94 28.1817H139.406L139.398 28.1837Z" fill="#1C1F2C"/>
<path d="M149.937 28.1836C149.813 28.8212 149.657 29.4626 149.471 30.1081C149.284 30.7535 149.07 31.3318 148.83 31.845C148.589 32.3582 148.305 32.7747 147.979 33.0925C147.653 33.4122 147.286 33.5701 146.883 33.5701C146.481 33.5701 146.133 33.4852 145.845 33.3135C145.557 33.1418 145.316 32.9128 145.123 32.6247C144.927 32.3365 144.777 32.0029 144.669 31.622C144.56 31.241 144.481 30.8325 144.436 30.3982C144.312 30.7871 144.152 31.172 143.958 31.5529C143.763 31.9338 143.546 32.2753 143.305 32.5793C143.064 32.8832 142.796 33.128 142.5 33.3135C142.204 33.501 141.886 33.5938 141.544 33.5938C140.846 33.5938 140.273 33.3806 139.829 32.9523C139.385 32.524 139.071 31.9931 138.884 31.3555C138.696 30.718 138.639 30.0311 138.708 29.2909C138.777 28.5527 138.968 27.8639 139.278 27.2263C139.59 26.5888 140.024 26.0559 140.585 25.6295C141.146 25.2012 141.821 24.988 142.614 24.988C143.035 24.988 143.419 25.0808 143.769 25.2683C144.118 25.4539 144.394 25.742 144.596 26.1309C144.627 25.9137 144.653 25.7223 144.677 25.5604C144.7 25.3986 144.72 25.2545 144.736 25.1282L146.649 25.1973C146.617 25.4302 146.548 25.7874 146.439 26.269C146.331 26.7506 146.218 27.2875 146.102 27.8777C145.985 28.4698 145.893 29.0758 145.822 29.6975C145.752 30.3193 145.729 30.8838 145.752 31.3891C145.776 31.8944 145.873 32.3108 146.045 32.6365C146.216 32.9622 146.495 33.126 146.883 33.126C147.209 33.126 147.505 32.978 147.77 32.6819C148.034 32.3858 148.275 32.0049 148.492 31.5391C148.709 31.0733 148.897 30.5443 149.053 29.9541C149.209 29.364 149.349 28.7718 149.473 28.1816H149.939L149.937 28.1836ZM144.387 28.7442C144.387 28.3238 144.41 27.9053 144.456 27.4849C144.456 26.8474 144.316 26.3579 144.035 26.0164C143.755 25.6749 143.429 25.5032 143.056 25.5032C142.604 25.5032 142.213 25.6947 141.878 26.0756C141.542 26.4565 141.268 26.9263 141.051 27.4869C140.834 28.0474 140.682 28.6613 140.597 29.3284C140.512 29.9975 140.488 30.6114 140.528 31.17C140.567 31.7305 140.672 32.2003 140.844 32.5813C141.015 32.9622 141.248 33.1517 141.542 33.1517C141.931 33.1517 142.292 32.9918 142.626 32.674C142.96 32.3562 143.248 31.9713 143.489 31.5193C143.729 31.0693 143.927 30.5857 144.083 30.0725C144.239 29.5594 144.339 29.1172 144.387 28.7422V28.7442Z" fill="#1C1F2C"/>
<path d="M152.478 33.1283C152.804 33.1283 153.104 32.9803 153.376 32.6842C153.649 32.3881 153.889 32.0072 154.099 31.5414C154.308 31.0756 154.495 30.5466 154.659 29.9564C154.823 29.3662 154.965 28.7741 155.091 28.1839H155.536C155.411 28.8215 155.255 29.459 155.07 30.0966C154.882 30.7341 154.669 31.3085 154.428 31.8217C154.187 32.3348 153.907 32.7553 153.589 33.0809C153.27 33.4066 152.908 33.5704 152.504 33.5704C151.819 33.5704 151.26 33.306 150.824 32.777C150.388 32.248 150.05 31.5414 149.81 30.6551C149.569 29.7689 149.429 28.7623 149.389 27.6352C149.35 26.5082 149.393 25.3575 149.517 24.183C149.642 23.0086 149.843 21.8579 150.123 20.7309C150.404 19.6038 150.745 18.5972 151.15 17.711C151.554 16.8247 152.012 16.1142 152.525 15.5773C153.039 15.0404 153.599 14.772 154.205 14.772C154.703 14.772 155.052 14.92 155.255 15.2161C155.457 15.5121 155.555 15.9089 155.547 16.4063C155.539 16.9037 155.443 17.4761 155.255 18.1195C155.068 18.765 154.835 19.4341 154.557 20.1249C154.276 20.8177 153.966 21.5046 153.623 22.1895C153.281 22.8744 152.95 23.512 152.632 24.1021C152.312 24.6923 152.018 25.2094 151.746 25.6535C151.473 26.0976 151.276 26.4115 151.152 26.599C151.12 27.4852 151.12 28.3241 151.152 29.1176C151.183 29.911 151.252 30.6019 151.361 31.194C151.47 31.7861 151.614 32.2559 151.793 32.6053C151.971 32.9546 152.202 33.1303 152.482 33.1303L152.478 33.1283ZM154.203 15.2161C153.83 15.2161 153.477 15.5319 153.141 16.1615C152.806 16.7912 152.508 17.6083 152.243 18.611C151.979 19.6137 151.758 20.7407 151.578 21.9921C151.398 23.2435 151.27 24.4831 151.193 25.7127C151.442 25.2923 151.756 24.7416 152.139 24.0567C152.52 23.3718 152.901 22.6415 153.281 21.8638C153.662 21.0862 154.012 20.3006 154.332 19.5091C154.649 18.7156 154.876 18.0051 155.009 17.3754C155.141 16.7458 155.157 16.2286 155.056 15.824C154.955 15.4194 154.671 15.2181 154.205 15.2181L154.203 15.2161Z" fill="#1C1F2C"/>
<path d="M160.5 28.1837C160.376 28.8212 160.224 29.4627 160.047 30.1081C159.867 30.7535 159.654 31.3319 159.405 31.8451C159.156 32.3582 158.868 32.7747 158.542 33.0925C158.217 33.4123 157.85 33.5702 157.447 33.5702C156.871 33.5702 156.417 33.3886 156.083 33.0214C155.75 32.6563 155.501 32.1905 155.337 31.622C155.173 31.0536 155.08 30.4239 155.057 29.7331C155.033 29.0423 155.045 28.3613 155.092 27.6922C155.14 27.0231 155.201 26.4092 155.28 25.8506C155.357 25.292 155.42 24.8637 155.467 24.5677L157.404 24.6367C157.372 24.8697 157.295 25.2427 157.171 25.7559C157.046 26.2691 156.922 26.8415 156.798 27.4711C156.673 28.1008 156.569 28.7501 156.482 29.4193C156.397 30.0884 156.361 30.6983 156.377 31.2509C156.393 31.8036 156.478 32.2536 156.634 32.603C156.79 32.9524 157.062 33.128 157.451 33.128C157.777 33.128 158.077 32.98 158.349 32.6839C158.621 32.3878 158.866 32.0069 159.083 31.5411C159.3 31.0753 159.488 30.5463 159.644 29.9561C159.8 29.366 159.94 28.7738 160.064 28.1837H160.508H160.5ZM156.594 23.9854C156.334 23.9854 156.107 23.8887 155.913 23.6933C155.722 23.4998 155.625 23.2689 155.625 23.0044C155.625 22.7399 155.722 22.5149 155.913 22.3274C156.105 22.1399 156.332 22.0471 156.594 22.0471C156.857 22.0471 157.078 22.1399 157.261 22.3274C157.445 22.5149 157.538 22.7399 157.538 23.0044C157.538 23.2689 157.445 23.4979 157.261 23.6933C157.078 23.8887 156.855 23.9854 156.594 23.9854Z" fill="#1C1F2C"/>
<path d="M165.798 28.1842C165.674 28.8217 165.522 29.4632 165.344 30.1086C165.165 30.754 164.951 31.3324 164.703 31.8455C164.454 32.3587 164.17 32.7752 163.852 33.093C163.532 33.4127 163.171 33.5706 162.766 33.5706C162.129 33.5706 161.62 33.3338 161.239 32.8601C160.858 32.3864 160.57 31.7567 160.376 30.9712C160.181 30.1856 160.064 29.2875 160.027 28.2769C159.987 27.2663 159.991 26.2242 160.039 25.1524C160.086 24.0787 160.163 23.0148 160.271 21.9568C160.38 20.8989 160.489 19.9277 160.597 19.0415C160.145 18.9645 159.727 18.9527 159.338 19.006C158.949 19.0612 158.631 19.2507 158.383 19.5784L158.033 19.2981C158.345 18.8935 158.732 18.6566 159.2 18.5875C159.668 18.5185 160.147 18.5224 160.647 18.5994C160.739 17.9934 160.81 17.4408 160.856 16.9434L162.768 16.967L162.512 18.9961C162.962 19.0889 163.382 19.1363 163.771 19.1363C164.16 19.1363 164.47 19.0119 164.705 18.7632L165.03 19.0672C164.718 19.379 164.338 19.5409 163.888 19.5567C163.436 19.5725 162.962 19.5251 162.464 19.4165C162.356 20.2712 162.247 21.2009 162.139 22.2035C162.03 23.2062 161.933 24.2168 161.847 25.2353C161.762 26.2538 161.703 27.2367 161.671 28.1861C161.639 29.1355 161.651 29.9744 161.706 30.7047C161.762 31.435 161.874 32.0232 162.044 32.4653C162.216 32.9094 162.456 33.1305 162.766 33.1305C163.092 33.1305 163.388 32.9825 163.653 32.6864C163.917 32.3903 164.158 32.0094 164.375 31.5436C164.592 31.0777 164.78 30.5488 164.936 29.9586C165.092 29.3684 165.232 28.7763 165.356 28.1861H165.8L165.798 28.1842Z" fill="#1C1F2C"/>
<path d="M175.08 28.1839C175.048 28.3714 175.011 28.5609 174.964 28.7543C174.916 28.9497 174.871 29.1392 174.823 29.3267C174.715 29.7787 174.563 30.1853 174.369 30.5505C174.174 30.9156 173.953 31.2433 173.704 31.5295C173.456 31.8176 173.183 32.0821 172.889 32.3229C172.593 32.5637 172.283 32.7848 171.956 32.9881C171.849 34.3244 171.691 35.6508 171.484 36.9653C171.277 38.2799 170.996 39.4562 170.643 40.4984C170.29 41.5406 169.842 42.3834 169.297 43.0288C168.752 43.6743 168.099 43.996 167.339 43.996C166.794 43.996 166.352 43.8874 166.008 43.6703C165.667 43.4532 165.402 43.165 165.215 42.8078C165.027 42.4505 164.911 42.0538 164.866 41.6176C164.818 41.1813 164.818 40.7392 164.866 40.2872C164.945 39.5411 165.146 38.8148 165.472 38.1062C165.797 37.3976 166.206 36.7344 166.695 36.1126C167.185 35.4909 167.73 34.9224 168.328 34.4092C168.926 33.896 169.536 33.4618 170.159 33.1026C170.191 32.6052 170.215 32.1117 170.228 31.6222C170.244 31.1327 170.26 30.6551 170.276 30.1873C170.136 30.6531 169.98 31.0893 169.81 31.4939C169.638 31.8986 169.449 32.2558 169.24 32.5677C169.03 32.8795 168.795 33.1243 168.541 33.3019C168.284 33.4816 168.008 33.5704 167.714 33.5704C167.137 33.5704 166.683 33.3888 166.35 33.0217C166.016 32.6565 165.768 32.1907 165.604 31.6222C165.44 31.0538 165.347 30.4241 165.324 29.7333C165.3 29.0425 165.312 28.3615 165.359 27.6924C165.406 27.0233 165.468 26.4094 165.547 25.8508C165.624 25.2923 165.687 24.8639 165.734 24.5679L167.647 24.637C167.615 24.8699 167.542 25.2429 167.426 25.7561C167.309 26.2693 167.189 26.8417 167.064 27.4713C166.94 28.101 166.835 28.7504 166.749 29.4195C166.664 30.0886 166.628 30.6985 166.644 31.2512C166.66 31.8038 166.745 32.2539 166.901 32.6032C167.057 32.9526 167.329 33.1282 167.718 33.1282C167.998 33.1282 168.255 33.0236 168.488 32.8144C168.72 32.6052 168.934 32.3249 169.129 31.9755C169.322 31.6262 169.498 31.2255 169.654 30.7755C169.81 30.3254 169.95 29.8498 170.074 29.3524C170.276 28.5589 170.371 27.7773 170.355 27.0075C170.339 26.2377 170.331 25.4403 170.331 24.6172H172.22C172.22 24.9903 172.216 25.4561 172.208 26.0166C172.2 26.5772 172.192 27.195 172.184 27.87C172.177 28.5471 172.157 29.2774 172.127 30.0629C172.096 30.8485 172.048 31.6459 171.987 32.4532C172.561 32.0644 173.063 31.6301 173.491 31.1466C173.919 30.6649 174.217 30.059 174.389 29.3267L174.646 28.1839H175.09H175.08ZM167.337 43.5775C167.71 43.5775 168.036 43.3683 168.316 42.9479C168.596 42.5275 168.837 41.9946 169.038 41.3511C169.24 40.7057 169.407 39.9872 169.54 39.1937C169.672 38.4003 169.78 37.6344 169.865 36.8962C169.95 36.158 170.013 35.4929 170.053 34.9027C170.092 34.3105 170.118 33.8842 170.134 33.6197C169.573 33.9454 169.018 34.354 168.466 34.8435C167.913 35.333 167.416 35.8738 166.974 36.464C166.53 37.0541 166.156 37.6798 165.854 38.3411C165.551 39.0023 165.361 39.6655 165.284 40.3346C165.237 40.7076 165.235 41.0886 165.272 41.4774C165.312 41.8663 165.404 42.2156 165.552 42.5275C165.701 42.8393 165.918 43.09 166.206 43.2854C166.494 43.4789 166.871 43.5775 167.337 43.5775Z" fill="#1C1F2C"/>
<path d="M133.91 40.5895V36.936H134.372V40.5718C134.372 42.1587 135.134 42.9028 136.458 42.9028C137.783 42.9028 138.535 42.1587 138.535 40.5718V36.936H138.997V40.5895C138.997 42.4035 138.026 43.3272 136.448 43.3272C134.871 43.3272 133.91 42.4015 133.91 40.5895Z" fill="#1C1F2C"/>
<path d="M140.51 42.4666L140.719 42.1212C141.153 42.5752 141.961 42.9186 142.813 42.9186C144.082 42.9186 144.645 42.3659 144.645 41.6771C144.645 39.7724 140.683 40.9152 140.683 38.5763C140.683 37.6782 141.372 36.8906 142.932 36.8906C143.63 36.8906 144.355 37.1077 144.844 37.4611L144.673 37.8321C144.147 37.469 143.502 37.2972 142.932 37.2972C141.698 37.2972 141.145 37.8677 141.145 38.5664C141.145 40.4711 145.107 39.346 145.107 41.6495C145.107 42.5475 144.39 43.3272 142.821 43.3272C141.878 43.3272 140.972 42.9739 140.51 42.4666Z" fill="#1C1F2C"/>
<path d="M150.603 41.4975H146.922L146.115 43.2838H145.615L148.534 36.936H148.996L151.916 43.2838H151.416L150.601 41.4975H150.603ZM150.431 41.1067L148.763 37.4433L147.103 41.1067H150.431Z" fill="#1C1F2C"/>
</svg>
