<svg width="16" height="16" viewBox="0 0 16 16" fill="none" xmlns="http://www.w3.org/2000/svg">
<path d="M8.005 0C10.2151 0 12.2128 0.893969 13.6585 2.34L16 0V7H8.99562L12.2176 3.78C11.1379 2.6909 9.65848 2.00114 7.99911 2C5.39003 2.00251 3.17137 3.67175 2.35147 6H2.33378C2.21976 6.32168 2.13245 6.6559 2.07452 7H0.0616952C0.552428 3.05239 3.91112 0 7.995 0H8.005Z" fill="#7A808A"/>
<path d="M0 9V16L2.34146 13.66C3.78717 15.106 5.78489 16 7.995 16L8.005 16C12.0889 16 15.4476 12.9476 15.9383 9H13.9255C13.8676 9.3441 13.7802 9.67832 13.6662 10H13.6485C12.8287 12.3282 10.6101 13.9974 8.00118 14C6.34169 13.9989 4.86221 13.3092 3.78236 12.22L7.00438 9H0Z" fill="#7A808A"/>
</svg>
